<?xml version="1.0" encoding="UTF-8" standalone="no"?>
<!DOCTYPE svg PUBLIC "-//W3C//DTD SVG 1.1//EN"
 "http://www.w3.org/Graphics/SVG/1.1/DTD/svg11.dtd">
<!-- Generated by graphviz version 12.2.1 (20241206.2353)
 -->
<!-- Title: BPMN_Sistema_Bancario Pages: 1 -->
<svg width="2421pt" height="764pt"
 viewBox="0.00 0.00 2421.09 764.00" xmlns="http://www.w3.org/2000/svg" xmlns:xlink="http://www.w3.org/1999/xlink">
<g id="graph0" class="graph" transform="scale(1 1) rotate(0) translate(4 760)">
<title>BPMN_Sistema_Bancario</title>
<polygon fill="white" stroke="none" points="-4,4 -4,-760 2417.09,-760 2417.09,4 -4,4"/>
<!-- Inicio -->
<g id="node1" class="node">
<title>Inicio</title>
<ellipse fill="lightgreen" stroke="black" cx="201.09" cy="-738" rx="32.41" ry="18"/>
<text text-anchor="middle" x="201.09" y="-732.95" font-family="Times New Roman,serif" font-size="14.00">Inicio</text>
</g>
<!-- Registro -->
<g id="node2" class="node">
<title>Registro</title>
<polygon fill="lightblue" stroke="black" points="178.46,-612 53.71,-612 53.71,-576 178.46,-576 178.46,-612"/>
<text text-anchor="middle" x="116.09" y="-588.95" font-family="Times New Roman,serif" font-size="14.00">Registro de Usuario</text>
</g>
<!-- Inicio&#45;&gt;Registro -->
<g id="edge1" class="edge">
<title>Inicio&#45;&gt;Registro</title>
<path fill="none" stroke="black" d="M191.17,-720.43C176.68,-696.22 149.55,-650.89 132.17,-621.87"/>
<polygon fill="black" stroke="black" points="135.39,-620.43 127.25,-613.65 129.38,-624.02 135.39,-620.43"/>
<text text-anchor="middle" x="121.92" y="-674.35" font-family="Times New Roman,serif" font-size="14.00">Nuevo usuario</text>
</g>
<!-- Login -->
<g id="node3" class="node">
<title>Login</title>
<polygon fill="lightblue" stroke="black" points="252.96,-468 149.21,-468 149.21,-432 252.96,-432 252.96,-468"/>
<text text-anchor="middle" x="201.09" y="-444.95" font-family="Times New Roman,serif" font-size="14.00">Inicio de Sesión</text>
</g>
<!-- Inicio&#45;&gt;Login -->
<g id="edge2" class="edge">
<title>Inicio&#45;&gt;Login</title>
<path fill="none" stroke="black" d="M202.9,-719.62C206.47,-685.27 214.09,-612 214.09,-612 214.09,-612 214.09,-576 214.09,-576 214.09,-576 207.88,-516.34 204.05,-479.45"/>
<polygon fill="black" stroke="black" points="207.57,-479.47 203.05,-469.89 200.61,-480.19 207.57,-479.47"/>
<text text-anchor="middle" x="261.34" y="-602.77" font-family="Times New Roman,serif" font-size="14.00">Usuario existente</text>
</g>
<!-- Registro&#45;&gt;Login -->
<g id="edge3" class="edge">
<title>Registro&#45;&gt;Login</title>
<path fill="none" stroke="black" d="M126.51,-575.59C141.12,-551.18 167.82,-506.58 184.99,-477.89"/>
<polygon fill="black" stroke="black" points="187.94,-479.79 190.07,-469.41 181.93,-476.19 187.94,-479.79"/>
<text text-anchor="middle" x="111.5" y="-529.94" font-family="Times New Roman,serif" font-size="14.00">Registro exitoso</text>
</g>
<!-- DecisionLogin -->
<g id="node5" class="node">
<title>DecisionLogin</title>
<polygon fill="lightyellow" stroke="black" points="336.09,-324 175.16,-306 336.09,-288 497.02,-306 336.09,-324"/>
<text text-anchor="middle" x="336.09" y="-300.95" font-family="Times New Roman,serif" font-size="14.00">¿Inicio de Sesión Correcto?</text>
</g>
<!-- Login&#45;&gt;DecisionLogin -->
<g id="edge4" class="edge">
<title>Login&#45;&gt;DecisionLogin</title>
<path fill="none" stroke="black" d="M217.64,-431.59C241.63,-406.35 286.15,-359.52 313.25,-331.02"/>
<polygon fill="black" stroke="black" points="315.66,-333.56 320.02,-323.9 310.59,-328.74 315.66,-333.56"/>
</g>
<!-- RecuperarPassword -->
<g id="node4" class="node">
<title>RecuperarPassword</title>
<polygon fill="lightblue" stroke="black" points="178.71,-180 7.46,-180 7.46,-144 178.71,-144 178.71,-180"/>
<text text-anchor="middle" x="93.09" y="-156.95" font-family="Times New Roman,serif" font-size="14.00">Recuperación de Contraseña</text>
</g>
<!-- RecuperarPassword&#45;&gt;Login -->
<g id="edge8" class="edge">
<title>RecuperarPassword&#45;&gt;Login</title>
<path fill="none" stroke="black" d="M98.01,-180.23C109.88,-221.76 139.09,-324 139.09,-324 139.09,-324 169.2,-384.7 187.45,-421.5"/>
<polygon fill="black" stroke="black" points="184.22,-422.86 191.8,-430.26 190.49,-419.75 184.22,-422.86"/>
<text text-anchor="middle" x="66.75" y="-307.64" font-family="Times New Roman,serif" font-size="14.00">Contraseña Restablecida</text>
</g>
<!-- DecisionLogin&#45;&gt;RecuperarPassword -->
<g id="edge6" class="edge">
<title>DecisionLogin&#45;&gt;RecuperarPassword</title>
<path fill="none" stroke="black" d="M311,-290.34C268.8,-265.68 183.28,-215.71 132.84,-186.23"/>
<polygon fill="black" stroke="black" points="134.65,-183.23 124.25,-181.21 131.11,-189.27 134.65,-183.23"/>
<text text-anchor="middle" x="158.92" y="-241.48" font-family="Times New Roman,serif" font-size="14.00">No, Olvidó Contraseña</text>
</g>
<!-- Menu -->
<g id="node6" class="node">
<title>Menu</title>
<polygon fill="lightyellow" stroke="black" points="1402.09,-324 1304.86,-306 1402.09,-288 1499.32,-306 1402.09,-324"/>
<text text-anchor="middle" x="1402.09" y="-300.95" font-family="Times New Roman,serif" font-size="14.00">Menú Principal</text>
</g>
<!-- DecisionLogin&#45;&gt;Menu -->
<g id="edge5" class="edge">
<title>DecisionLogin&#45;&gt;Menu</title>
<path fill="none" stroke="black" d="M501.27,-306C594.07,-306 691.42,-306 691.42,-306 691.42,-306 1046.76,-306 1046.76,-306 1046.76,-306 1186.68,-306 1290.92,-306"/>
<polygon fill="black" stroke="black" points="1290.65,-309.5 1300.65,-306 1290.65,-302.5 1290.65,-309.5"/>
<text text-anchor="middle" x="890.47" y="-309.2" font-family="Times New Roman,serif" font-size="14.00">Sí</text>
</g>
<!-- BloqueoCuenta -->
<g id="node7" class="node">
<title>BloqueoCuenta</title>
<polygon fill="lightblue" stroke="black" points="379.96,-180 264.21,-180 264.21,-144 379.96,-144 379.96,-180"/>
<text text-anchor="middle" x="322.09" y="-156.95" font-family="Times New Roman,serif" font-size="14.00">Cuenta Bloqueada</text>
</g>
<!-- DecisionLogin&#45;&gt;BloqueoCuenta -->
<g id="edge7" class="edge">
<title>DecisionLogin&#45;&gt;BloqueoCuenta</title>
<path fill="none" stroke="black" d="M334.4,-287.87C332.05,-263.99 327.75,-220.38 324.9,-191.54"/>
<polygon fill="black" stroke="black" points="328.4,-191.3 323.93,-181.7 321.43,-191.99 328.4,-191.3"/>
<text text-anchor="middle" x="387.03" y="-242.91" font-family="Times New Roman,serif" font-size="14.00">No, Intentos Fallidos</text>
</g>
<!-- Cuentas -->
<g id="node8" class="node">
<title>Cuentas</title>
<polygon fill="lightblue" stroke="black" points="630.46,-180 451.71,-180 451.71,-144 630.46,-144 630.46,-180"/>
<text text-anchor="middle" x="541.09" y="-156.95" font-family="Times New Roman,serif" font-size="14.00">Gestión de Cuentas Bancarias</text>
</g>
<!-- Menu&#45;&gt;Cuentas -->
<g id="edge10" class="edge">
<title>Menu&#45;&gt;Cuentas</title>
<path fill="none" stroke="black" d="M1352.08,-296.75C1214.27,-274.02 827.07,-210.16 642.02,-179.65"/>
<polygon fill="black" stroke="black" points="642.6,-176.19 632.16,-178.02 641.46,-183.1 642.6,-176.19"/>
<text text-anchor="middle" x="940.05" y="-241.4" font-family="Times New Roman,serif" font-size="14.00">1. Gestionar Cuentas</text>
</g>
<!-- Transferencias -->
<g id="node9" class="node">
<title>Transferencias</title>
<polygon fill="lightblue" stroke="black" points="875.84,-180 702.34,-180 702.34,-144 875.84,-144 875.84,-180"/>
<text text-anchor="middle" x="789.09" y="-156.95" font-family="Times New Roman,serif" font-size="14.00">Transferencias entre Cuentas</text>
</g>
<!-- Menu&#45;&gt;Transferencias -->
<g id="edge11" class="edge">
<title>Menu&#45;&gt;Transferencias</title>
<path fill="none" stroke="black" d="M1360.44,-295.35C1261.23,-272.37 1009.29,-214.01 875.55,-183.03"/>
<polygon fill="black" stroke="black" points="876.57,-179.67 866.04,-180.82 874.99,-186.49 876.57,-179.67"/>
<text text-anchor="middle" x="1071.5" y="-242.39" font-family="Times New Roman,serif" font-size="14.00">2. Transferencias</text>
</g>
<!-- Tarjetas -->
<g id="node10" class="node">
<title>Tarjetas</title>
<polygon fill="lightblue" stroke="black" points="1068.21,-180 947.96,-180 947.96,-144 1068.21,-144 1068.21,-180"/>
<text text-anchor="middle" x="1008.09" y="-156.95" font-family="Times New Roman,serif" font-size="14.00">Gestión de Tarjetas</text>
</g>
<!-- Menu&#45;&gt;Tarjetas -->
<g id="edge12" class="edge">
<title>Menu&#45;&gt;Tarjetas</title>
<path fill="none" stroke="black" d="M1370.18,-293.5C1304.19,-269.72 1151.83,-214.81 1067.29,-184.34"/>
<polygon fill="black" stroke="black" points="1068.6,-181.09 1058,-180.99 1066.22,-187.67 1068.6,-181.09"/>
<text text-anchor="middle" x="1190.61" y="-242.12" font-family="Times New Roman,serif" font-size="14.00">3. Tarjetas</text>
</g>
<!-- Pagos -->
<g id="node11" class="node">
<title>Pagos</title>
<polygon fill="lightblue" stroke="black" points="1264.09,-180 1140.09,-180 1140.09,-144 1264.09,-144 1264.09,-180"/>
<text text-anchor="middle" x="1202.09" y="-156.95" font-family="Times New Roman,serif" font-size="14.00">Pagos Programados</text>
</g>
<!-- Menu&#45;&gt;Pagos -->
<g id="edge13" class="edge">
<title>Menu&#45;&gt;Pagos</title>
<path fill="none" stroke="black" d="M1382.55,-291.13C1348.53,-266.98 1278.06,-216.94 1235.96,-187.05"/>
<polygon fill="black" stroke="black" points="1238.08,-184.26 1227.9,-181.32 1234.02,-189.97 1238.08,-184.26"/>
<text text-anchor="middle" x="1370.38" y="-225.79" font-family="Times New Roman,serif" font-size="14.00">4. Pagos Programados</text>
</g>
<!-- Prestamos -->
<g id="node12" class="node">
<title>Prestamos</title>
<polygon fill="lightblue" stroke="black" points="1468.21,-180 1335.96,-180 1335.96,-144 1468.21,-144 1468.21,-180"/>
<text text-anchor="middle" x="1402.09" y="-156.95" font-family="Times New Roman,serif" font-size="14.00">Préstamos y Créditos</text>
</g>
<!-- Menu&#45;&gt;Prestamos -->
<g id="edge14" class="edge">
<title>Menu&#45;&gt;Prestamos</title>
<path fill="none" stroke="black" d="M1402.09,-287.59C1402.09,-263.61 1402.09,-220.14 1402.09,-191.42"/>
<polygon fill="black" stroke="black" points="1405.59,-191.62 1402.09,-181.62 1398.59,-191.62 1405.59,-191.62"/>
<text text-anchor="middle" x="1336.84" y="-242.7" font-family="Times New Roman,serif" font-size="14.00">5. Préstamos y Créditos</text>
</g>
<!-- Inversiones -->
<g id="node13" class="node">
<title>Inversiones</title>
<polygon fill="lightblue" stroke="black" points="1676.09,-180 1540.09,-180 1540.09,-144 1676.09,-144 1676.09,-180"/>
<text text-anchor="middle" x="1608.09" y="-156.95" font-family="Times New Roman,serif" font-size="14.00">Inversiones y Ahorros</text>
</g>
<!-- Menu&#45;&gt;Inversiones -->
<g id="edge15" class="edge">
<title>Menu&#45;&gt;Inversiones</title>
<path fill="none" stroke="black" d="M1421.84,-291.38C1456.86,-267.25 1530.21,-216.68 1573.68,-186.72"/>
<polygon fill="black" stroke="black" points="1575.51,-189.71 1581.75,-181.15 1571.53,-183.95 1575.51,-189.71"/>
<text text-anchor="middle" x="1564.89" y="-242.25" font-family="Times New Roman,serif" font-size="14.00">6. Inversiones y Ahorros</text>
</g>
<!-- Seguridad -->
<g id="node14" class="node">
<title>Seguridad</title>
<polygon fill="lightblue" stroke="black" points="1912.34,-180 1747.84,-180 1747.84,-144 1912.34,-144 1912.34,-180"/>
<text text-anchor="middle" x="1830.09" y="-156.95" font-family="Times New Roman,serif" font-size="14.00">Seguridad y Cumplimiento</text>
</g>
<!-- Menu&#45;&gt;Seguridad -->
<g id="edge16" class="edge">
<title>Menu&#45;&gt;Seguridad</title>
<path fill="none" stroke="black" d="M1435.67,-293.86C1506.97,-270.2 1674.45,-214.64 1766.58,-184.07"/>
<polygon fill="black" stroke="black" points="1767.6,-187.42 1775.99,-180.95 1765.4,-180.78 1767.6,-187.42"/>
<text text-anchor="middle" x="1519.75" y="-225.66" font-family="Times New Roman,serif" font-size="14.00">7. Seguridad y Cumplimiento</text>
</g>
<!-- Reportes -->
<g id="node15" class="node">
<title>Reportes</title>
<polygon fill="lightblue" stroke="black" points="2131.34,-180 1984.84,-180 1984.84,-144 2131.34,-144 2131.34,-180"/>
<text text-anchor="middle" x="2058.09" y="-156.95" font-family="Times New Roman,serif" font-size="14.00">Generación de Reportes</text>
</g>
<!-- Menu&#45;&gt;Reportes -->
<g id="edge17" class="edge">
<title>Menu&#45;&gt;Reportes</title>
<path fill="none" stroke="black" d="M1445.64,-295.57C1552.98,-272.34 1831.75,-211.99 1973.16,-181.38"/>
<polygon fill="black" stroke="black" points="1973.83,-184.82 1982.86,-179.28 1972.35,-177.98 1973.83,-184.82"/>
<text text-anchor="middle" x="1781.77" y="-241.68" font-family="Times New Roman,serif" font-size="14.00">8. Generación de Reportes</text>
</g>
<!-- Soporte -->
<g id="node16" class="node">
<title>Soporte</title>
<polygon fill="lightblue" stroke="black" points="2376.84,-180 2203.34,-180 2203.34,-144 2376.84,-144 2376.84,-180"/>
<text text-anchor="middle" x="2290.09" y="-156.95" font-family="Times New Roman,serif" font-size="14.00">Servicio al Cliente y Soporte</text>
</g>
<!-- Menu&#45;&gt;Soporte -->
<g id="edge18" class="edge">
<title>Menu&#45;&gt;Soporte</title>
<path fill="none" stroke="black" d="M1452.7,-296.91C1595.4,-274.09 2002.85,-208.93 2191.74,-178.73"/>
<polygon fill="black" stroke="black" points="2192.22,-182.19 2201.54,-177.16 2191.12,-175.28 2192.22,-182.19"/>
<text text-anchor="middle" x="1765.97" y="-224.52" font-family="Times New Roman,serif" font-size="14.00">9. Soporte al Cliente</text>
</g>
<!-- Fin -->
<g id="node17" class="node">
<title>Fin</title>
<ellipse fill="red" stroke="black" cx="1404.09" cy="-18" rx="27" ry="18"/>
<text text-anchor="middle" x="1404.09" y="-12.95" font-family="Times New Roman,serif" font-size="14.00">Fin</text>
</g>
<!-- Menu&#45;&gt;Fin -->
<g id="edge19" class="edge">
<title>Menu&#45;&gt;Fin</title>
<path fill="none" stroke="black" d="M1458.61,-298.01C1671.52,-271.69 2413.09,-180 2413.09,-180 2413.09,-180 2413.09,-144 2413.09,-144 2413.09,-144 1625.61,-46.44 1442.02,-23.7"/>
<polygon fill="black" stroke="black" points="1442.67,-20.25 1432.32,-22.5 1441.81,-27.2 1442.67,-20.25"/>
<text text-anchor="middle" x="2400.34" y="-156.83" font-family="Times New Roman,serif" font-size="14.00">Salir</text>
</g>
<!-- BloqueoCuenta&#45;&gt;Fin -->
<g id="edge9" class="edge">
<title>BloqueoCuenta&#45;&gt;Fin</title>
<path fill="none" stroke="black" d="M380.28,-150.48C399.51,-147 416.09,-144 416.09,-144 416.09,-144 1184.75,-46.75 1366.09,-23.81"/>
<polygon fill="black" stroke="black" points="1366.42,-27.29 1375.91,-22.57 1365.54,-20.35 1366.42,-27.29"/>
<text text-anchor="middle" x="835.91" y="-89.39" font-family="Times New Roman,serif" font-size="14.00">Cerrar Sesión</text>
</g>
</g>
</svg>
